<?xml version="1.0" encoding="iso-8859-1"?>
<!-- Uploaded to: SVG Repo, www.svgrepo.com, Generator: SVG Repo Mixer Tools -->
<svg fill="#000000" height="800px" width="800px" version="1.1" id="Layer_1" xmlns="http://www.w3.org/2000/svg" xmlns:xlink="http://www.w3.org/1999/xlink" 
	 viewBox="0 0 503.996 503.996" xml:space="preserve">
<g transform="translate(-1)">
	<g>
		<g>
			<path d="M504.775,399.864c-0.077-0.973-0.16-1.705-0.226-2.168l-0.222-1.059L462.36,245.555
				c-7.338-22.049-18.246-39.825-32.122-54.037c-10.491-10.747-23.022-19.25-36.817-25.295c0.339-1.156,0.434-2.407,0.228-3.689
				c-13.12-81.59-62.996-149.749-141.533-149.749S123.704,80.944,110.584,162.534c-0.247,1.539-0.055,3.031,0.466,4.37
				c-13.194,5.997-25.19,14.264-35.293,24.615c-13.875,14.211-24.783,31.987-31.997,53.628L1.669,396.637l-0.222,1.059
				c-0.066,0.463-0.149,1.195-0.226,2.168c-0.77,9.699,0.369,20.856,5.017,31.702c6.882,16.057,19.995,27.352,39.81,32.042
				l-9.702,14.553c-2.571,3.857-1.529,9.068,2.328,11.64c3.857,2.571,9.068,1.529,11.64-2.328l14.341-21.512
				c1.268,0.041,2.548,0.069,3.855,0.069h8.393h352.525h8.058c1.42,0,2.809-0.033,4.182-0.082l14.35,21.525
				c2.571,3.857,7.783,4.899,11.64,2.328s4.899-7.783,2.328-11.64l-9.75-14.625c19.653-4.731,32.674-15.991,39.522-31.97
				C504.406,420.72,505.545,409.563,504.775,399.864z M252.117,29.572c65.225,0,109.01,55.923,123.193,125.902h-17.505
				c-3.786-15.872-9.323-32.092-17.051-47.361c-20.535-40.584-50.593-61.754-88.637-61.754s-68.102,21.17-88.637,61.755
				c-7.727,15.268-13.265,31.487-17.051,47.36h-17.505C143.107,85.494,186.892,29.572,252.117,29.572z M178.458,115.693
				c17.84-35.258,42.389-52.548,73.659-52.548s55.819,17.289,73.658,52.547c6.444,12.732,11.269,26.34,14.73,39.781H164.741
				c-0.339,0-0.677,0.009-1.016,0.012C167.186,142.04,172.013,128.428,178.458,115.693z M93.691,449.244V330.443
				c0-27.1,21.968-49.068,49.068-49.068h220.815c27.1,0,49.068,21.968,49.068,49.068v118.801H93.691z M484.329,424.954
				c-6.525,15.224-20.771,24.29-46.843,24.29h-8.058V330.443c0-36.371-29.484-65.855-65.855-65.855H142.759
				c-36.371,0-65.855,29.484-65.855,65.855v118.801H68.51c-26.072,0-40.318-9.066-46.843-24.29
				c-3.409-7.955-4.285-16.54-3.712-23.762c0.022-0.275,41.855-151.145,41.855-151.145c6.281-18.81,15.845-34.396,27.959-46.802
				c19.462-19.938,47.37-30.985,76.972-30.985h176.514c29.602,0,57.51,11.047,76.971,30.985
				c12.114,12.407,21.678,27.993,28.084,47.211l41.67,150.053C488.614,408.414,487.738,416.998,484.329,424.954z"/>
			<path d="M337.1,331.735H169.232c-4.636,0-8.393,3.758-8.393,8.393c0,4.636,3.758,8.393,8.393,8.393h20.071
				c-2.111,4.995-3.284,10.753-3.284,16.787c0,17.993,10.39,33.574,25.18,33.574s25.18-15.581,25.18-33.574
				c0-6.034-1.173-11.792-3.284-16.787H337.1c4.636,0,8.393-3.758,8.393-8.393C345.494,335.493,341.736,331.735,337.1,331.735z
				 M219.592,365.309c0,9.817-4.648,16.787-8.393,16.787c-3.746,0-8.393-6.97-8.393-16.787s4.648-16.787,8.393-16.787
				C214.945,348.522,219.592,355.492,219.592,365.309z"/>
		</g>
	</g>
</g>
</svg>