<svg xmlns="http://www.w3.org/2000/svg" viewBox="0 0 64 64" id="handbag"><g data-name="7"><path d="M50 33H15a4 4 0 0 0-4 4v17a4 4 0 0 0 4 4h35a4 4 0 0 0 4-4V37a4 4 0 0 0-4-4Zm0 24H15a3 3 0 0 1-3-3v-1h41v1a3 3 0 0 1-3 3Zm3-5H12V37a3 3 0 0 1 3-3h35a3 3 0 0 1 3 3Z"></path><path d="M31 37.5a.5.5 0 0 0-.5-.5h-15a.5.5 0 0 0 0 1h15a.5.5 0 0 0 .5-.5zm18.5-.5h-15a.5.5 0 0 0 0 1h15a.5.5 0 0 0 0-1zm-9 5h-16a.5.5 0 0 0-.5.5v5a.5.5 0 0 0 .5.5h16a.5.5 0 0 0 .5-.5v-5a.5.5 0 0 0-.5-.5zm-.5 5H25v-4h15z"></path><path d="M43.69 6H20.31A14.33 14.33 0 0 0 6 20.31V42.5a.5.5 0 0 0 .5.5h3a.5.5 0 0 0 0-1H7V20.31A13.32 13.32 0 0 1 20.31 7H22v2.5a.5.5 0 0 0 .5.5h19a.5.5 0 0 0 .5-.5V7h1.67A13.32 13.32 0 0 1 57 20.31V45h-1.5a.5.5 0 0 0 0 1h2a.5.5 0 0 0 .5-.5V20.31A14.33 14.33 0 0 0 43.69 6ZM41 9H23V7h18Z"></path></g></svg>