<?xml version="1.0" encoding="iso-8859-1"?>
<!-- Uploaded to: SVG Repo, www.svgrepo.com, Generator: SVG Repo Mixer Tools -->
<svg fill="#000000" height="800px" width="800px" version="1.1" id="Layer_1" xmlns="http://www.w3.org/2000/svg" xmlns:xlink="http://www.w3.org/1999/xlink" 
	 viewBox="0 0 500 500" xml:space="preserve">
<g>
	<g>
		<path d="M449.144,128.86H50.856C22.816,128.86,0,151.672,0,179.716v214.76c0,28.04,22.812,50.856,50.856,50.856h398.288
			c28.04,0,50.856-22.816,50.856-50.856v-214.76C500,151.676,477.184,128.86,449.144,128.86z M492,394.476
			c0,23.632-19.224,42.856-42.856,42.856H50.856C27.228,437.332,8,418.108,8,394.476v-214.76c0-23.632,19.228-42.86,42.856-42.86
			v0.004h398.288c23.632,0,42.856,19.224,42.856,42.856V394.476z"/>
	</g>
</g>
<g>
	<g>
		<path d="M306.508,54.668H197.296c-31.808,0-56.724,25.768-56.724,58.664v19.524c0,2.208,1.792,4,4,4s4-1.792,4-4v-19.524
			c0-28.412,21.4-50.664,48.724-50.664h109.212c27.38,0,48.824,22.252,48.824,50.664v19.524c0,2.208,1.792,4,4,4s4-1.788,4-4
			v-19.524C363.332,80.436,338.372,54.668,306.508,54.668z"/>
	</g>
</g>
<g>
	<g>
		<path d="M306.568,70.284H201.14c-24.364,0-44.948,19.612-44.948,42.828v19.744c0,2.208,1.792,4,4,4s4-1.792,4-4v-19.744
			c0-18.552,17.264-34.828,36.948-34.828h105.432c18.896,0,33.144,14.972,33.144,34.828v19.744c0,2.208,1.792,4,4,4s4-1.788,3.996-4
			v-19.744C347.712,89.096,329.64,70.284,306.568,70.284z"/>
	</g>
</g>
<g>
	<g>
		<path d="M312.476,359.24H99.616c-19.8,0-39.628-15.664-44.188-34.86L17.036,152.076c-0.48-2.16-2.62-3.508-4.772-3.036
			c-2.156,0.48-3.516,2.616-3.036,4.772l38.404,172.36c5.38,22.644,28.7,41.068,51.984,41.068h212.86c2.208,0,4-1.792,4-4
			S314.684,359.24,312.476,359.24z"/>
	</g>
</g>
<g>
	<g>
		<path d="M488.52,154.164c-2.168-0.472-4.288,0.912-4.752,3.072l-35.852,167.116c-2.092,8.808-7.324,17.14-14.728,23.46
			c-3.972,3.384-8.308,6.088-12.896,8.032c-5.316,2.252-10.732,3.396-16.104,3.396h-52.664c-2.208,0-4,1.792-4,4s1.792,4,4,4h52.664
			c6.448,0,12.916-1.356,19.232-4.032c5.34-2.264,10.376-5.396,14.964-9.312c8.684-7.412,14.836-17.248,17.336-27.78l35.872-167.2
			C492.056,156.752,490.68,154.628,488.52,154.164z"/>
	</g>
</g>
<g>
	<g>
		<path d="M128.952,324.092h-7.812c-10.82,0-19.62,8.8-19.62,19.62v39.048c0,10.82,8.8,19.62,19.62,19.62h7.812
			c10.82,0,19.62-8.8,19.62-19.62v-39.048C148.572,332.892,139.772,324.092,128.952,324.092z M140.576,382.764
			c0,6.408-5.212,11.62-11.62,11.62h-7.812c-6.408,0-11.62-5.212-11.62-11.62v-39.048c0-6.408,5.212-11.62,11.62-11.62h7.812
			c6.408,0,11.62,5.212,11.62,11.62V382.764z"/>
	</g>
</g>
<g>
	<g>
		<path d="M390.568,324.092h-7.808c-10.816,0-19.616,8.8-19.616,19.62v39.048c0,10.82,8.8,19.62,19.616,19.62h7.812
			c10.816,0,19.62-8.8,19.616-19.62v-39.048C410.188,332.892,401.388,324.092,390.568,324.092z M402.188,382.764
			c0,6.408-5.212,11.62-11.62,11.62h-7.808c-6.404,0-11.616-5.212-11.616-11.62v-39.048c0-6.408,5.208-11.62,11.616-11.62h7.808
			c6.408,0,11.62,5.212,11.62,11.62V382.764z"/>
	</g>
</g>
<g>
	<g>
		<path d="M251.668,304.512c-20.956,0-43.224,6.9-43.224,19.688c0,12.784,22.272,19.68,43.224,19.68
			c20.952,0,43.224-6.896,43.224-19.68C294.892,311.412,272.624,304.512,251.668,304.512z M251.668,335.88
			c-21.504,0-35.224-6.92-35.224-11.68c0-4.768,13.724-11.688,35.224-11.688s35.224,6.92,35.224,11.688
			C286.892,328.964,273.172,335.88,251.668,335.88z"/>
	</g>
</g>
</svg>