<svg xmlns="http://www.w3.org/2000/svg" width="64" height="64" id="shopping"><g transform="translate(-1795.982 -1360.35) scale(.99999)"><circle cx="1827.999" cy="1392.362" r="32" fill="#e6e6dc"></circle><path fill="#d0cfbf" d="M1806 1415.548a32 32 0 0 0 1.385 1.289 32 32 0 0 0 2.547 1.935 32 32 0 0 0 2.726 1.672 32 32 0 0 0 2.881 1.393 32 32 0 0 0 3.004 1.095 32 32 0 0 0 3.1.791 32 32 0 0 0 3.162.479 32 32 0 0 0 3.195.16 32 32 0 0 0 2.264-.08 32 32 0 0 0 3.174-.385 32 32 0 0 0 3.12-.701 32 32 0 0 0 2.438-.809 32 32 0 0 0 .727-.255 32 32 0 0 0 .02-.01v-.032a32 32 0 0 0 .583-.262h.07a32 32 0 0 0 2.115-.947 32 32 0 0 0 2.775-1.592 32 32 0 0 0 1.389-.992v-.02a32 32 0 0 0 1.377-.993v-.045a32 32 0 0 0 0-.002 32 32 0 0 0 .393-.313 32 32 0 0 0 .656-.597 32 32 0 0 0 1.722-1.592 32 32 0 0 0 .17-.174v-.01a32 32 0 0 0 0-.002 32 32 0 0 0 .877-.934v-1.95 1.95a32 32 0 0 0 .596-.638 32 32 0 0 0 1.936-2.547 32 32 0 0 0 1.672-2.727 32 32 0 0 0 .603-1.25l-5.127-5.127c0-.004-.01-.004-.014-.008-.026-.025-.058-.041-.086-.064l-6.017-6.018c0-.002 0-.004-.01-.006-.122-.12-.265-.218-.399-.326-.112-.09-.214-.194-.334-.275 0-.003-.01-.005-.012-.008a4.962 4.962 0 0 0-.836-.451l-.01-.004a4.988 4.988 0 0 0-.931-.286s0-.002-.01-.002c-.09-.018-.182-.027-.274-.04l-3.36-3.36v-.002a1.605 1.605 0 0 0-.288-.225l-8.572-8.572c-.01-.006-.012-.01-.018-.015a7.193 7.193 0 0 0-.497-.45v-.002c-.095-.078-.197-.149-.296-.222-.09-.067-.177-.137-.27-.2v-.002a7.22 7.22 0 0 0-.582-.351c0-.002-.01-.005-.014-.008-.085-.046-.175-.083-.262-.125-.123-.06-.243-.123-.369-.176a7.251 7.251 0 0 0-.654-.238l-.012-.004a7.24 7.24 0 0 0-.686-.174l-.01-.002a7.288 7.288 0 0 0-.713-.107h-.01a7.302 7.302 0 0 0-2.334.143 7.632 7.632 0 0 0-.797-.138 7.082 7.082 0 0 0-.822-.048c-4.002 0-7.222 3.202-7.222 7.18v3.267h-7.237a1.605 1.605 0 0 0-1.607 1.607v23.932z"></path><circle cx="1814.838" cy="1395.633" r="1.607" fill="#e6e6e6"></circle><circle cx="1829.301" cy="1395.633" r="1.607" fill="#e6e6e6"></circle><path fill="none" stroke="#1a1a1a" stroke-linecap="round" stroke-linejoin="round" d="M1814.844 1395.617v-8.876c0-3.977 3.223-7.18 7.225-7.18 4.003 0 7.225 3.203 7.225 7.18v8.876"></path><path fill="#e42c34" d="M1812.427 1390.009c-.89 0-1.607.717-1.607 1.607v27.701a32 32 0 0 0 17.18 5.045 32 32 0 0 0 11.746-2.24v-30.506c0-.89-.718-1.607-1.608-1.607h-25.71z"></path><path fill="#e42c34" d="M1810.91 1390.009c-.94 0-1.696.717-1.696 1.607v26.611a32 32 0 0 0 18.785 6.135 32 32 0 0 0 11.747-2.24v-30.506c0-.89-.756-1.607-1.696-1.607h-27.14z"></path><circle cx="1818.052" cy="1395.633" r="1.607" fill="#e6e6e6"></circle><circle cx="1832.515" cy="1395.633" r="1.607" fill="#e6e6e6"></circle><path fill="none" stroke="#1a1a1a" stroke-linecap="round" stroke-linejoin="round" d="M1818.058 1395.622v-8.875c0-3.978 3.223-7.18 7.225-7.18 4.003 0 7.225 3.202 7.225 7.18v8.875"></path><path fill="#bb2c34" d="M1807.607 1390.009c-.89 0-1.607.717-1.607 1.607v23.932a32 32 0 0 0 4.82 3.77v-27.702c0-.89.717-1.607 1.607-1.607h-4.82z"></path><path fill="#9a2c34" d="M1807.607 1390.009c-.89 0-1.607.716-1.607 1.607v.016a2.41 1.982 0 0 0 1.205 1.704 2.41 1.982 0 0 0 2.41 0 2.41 1.982 0 0 0 1.205-1.704 2.41 1.982 0 0 0 0-.016c0-.89.717-1.607 1.607-1.607h-4.82z"></path><circle cx="1834.701" cy="1404.86" r="1.108" fill="#e6e6e6"></circle><circle cx="1844.675" cy="1404.86" r="1.108" fill="#e6e6e6"></circle><path fill="none" stroke="#1a1a1a" stroke-linecap="round" stroke-linejoin="round" d="M1834.705 1404.849v-6.12c0-2.744 2.222-4.952 4.983-4.952 2.76 0 4.982 2.208 4.982 4.951v6.12"></path><path fill-opacity=".235" d="M1828.17 1400.981c-.649 0-1.17.494-1.17 1.108v22.166c0 .02.01.038.011.059a32 32 0 0 0 .988.049 32 32 0 0 0 20.057-7.08v-15.194c0-.614-.522-1.107-1.17-1.107h-18.717z"></path><path fill="#e42c34" d="M1832.16 1400.981c-.614 0-1.108.494-1.108 1.108v22.097a32 32 0 0 0 19.947-9.626v-12.471c0-.614-.493-1.108-1.107-1.108h-17.732z"></path><path fill="#e42c34" d="M1831.992 1400.981c-.648 0-1.17.494-1.17 1.108v22.125a32 32 0 0 0 21.056-10.598v-11.527c0-.614-.522-1.108-1.17-1.108h-18.716z"></path><path fill="#bb2c34" d="M1829.714 1400.981c-.614 0-1.109.494-1.109 1.108v22.166c0 .03.015.056.018.086a32 32 0 0 0 3.309-.26v-21.992c0-.614.493-1.108 1.107-1.108h-3.324z"></path><path fill="#9a2c34" d="M1829.714 1400.981c-.614 0-1.108.495-1.108 1.109v.01a1.662 1.367 0 0 0 .83 1.176 1.662 1.367 0 0 0 1.663 0 1.662 1.367 0 0 0 .831-1.175 1.662 1.367 0 0 0 0-.011c0-.614.495-1.109 1.109-1.109h-3.325z"></path><circle cx="1836.917" cy="1404.86" r="1.108" fill="#e6e6e6"></circle><circle cx="1846.891" cy="1404.86" r="1.108" fill="#e6e6e6"></circle><path fill="none" stroke="#1a1a1a" stroke-linecap="round" stroke-linejoin="round" d="M1836.922 1404.852v-6.12c0-2.743 2.222-4.952 4.982-4.952 2.76 0 4.983 2.209 4.983 4.952v6.12"></path><path fill="#4d4d4d" d="M1848.057 1417.282a32 32 0 0 0 .024-.022l-.024-.023v.045zm-8.31 4.84a32 32 0 0 0 .018-.01l-.019-.02v.03z"></path></g></svg>